0
SECTION
2
HEADER
9
$INSUNITS
70
4
9
$ACADVER
1
AC1014
9
$HANDSEED
5
FFFF
0
ENDSEC
0
SECTION
2
TABLES
0
TABLE
2
VPORT
5
8
100
AcDbSymbolTable
0
ENDTAB
0
TABLE
2
LTYPE
5
5
100
AcDbSymbolTable
0
LTYPE
5
14
100
AcDbSymbolTableRecord
100
AcDbLinetypeTableRecord
2
BYBLOCK
70
0
0
LTYPE
5
15
100
AcDbSymbolTableRecord
100
AcDbLinetypeTableRecord
2
BYLAYER
70
0
0
ENDTAB
0
TABLE
2
LAYER
5
2
100
AcDbSymbolTable
70
2
0
LAYER
5
50
100
AcDbSymbolTableRecord
100
AcDbLayerTableRecord
2
0
70
0
6
CONTINUOUS
0
ENDTAB
0
TABLE
2
STYLE
5
3
100
AcDbSymbolTable
70
1
0
STYLE
5
11
100
AcDbSymbolTableRecord
100
AcDbTextStyleTableRecord
2
STANDARD
70
0
0
ENDTAB
0
TABLE
2
VIEW
5
6
100
AcDbSymbolTable
70
0
0
ENDTAB
0
TABLE
2
UCS
5
7
100
AcDbSymbolTable
70
0
0
ENDTAB
0
TABLE
2
APPID
5
9
100
AcDbSymbolTable
70
2
0
APPID
5
12
100
AcDbSymbolTableRecord
100
AcDbRegAppTableRecord
2
ACAD
70
0
0
ENDTAB
0
TABLE
2
DIMSTYLE
5
A
100
AcDbSymbolTable
70
1
0
ENDTAB
0
TABLE
2
BLOCK_RECORD
5
1
100
AcDbSymbolTable
70
1
0
BLOCK_RECORD
5
1F
100
AcDbSymbolTableRecord
100
AcDbBlockTableRecord
2
*MODEL_SPACE
0
BLOCK_RECORD
5
1B
100
AcDbSymbolTableRecord
100
AcDbBlockTableRecord
2
*PAPER_SPACE
0
ENDTAB
0
ENDSEC
0
SECTION
2
BLOCKS
0
BLOCK
5
20
100
AcDbEntity
100
AcDbBlockBegin
2
*MODEL_SPACE
0
ENDBLK
5
21
100
AcDbEntity
100
AcDbBlockEnd
0
BLOCK
5
1C
100
AcDbEntity
100
AcDbBlockBegin
2
*PAPER_SPACE
0
ENDBLK
5
1D
100
AcDbEntity
100
AcDbBlockEnd
0
ENDSEC
0
SECTION
2
ENTITIES
0
LWPOLYLINE
5
100
100
AcDbEntity
8
0
100
AcDbPolyline
90
4
70
1
43
0.0
10
-5413.4999999999836
20
623.99999999999852
10
-5437.5000000000191
20
623.99999999999818
10
-5437.5000000000164
20
563.99999999999818
10
-5413.4999999999873
20
563.99999999999852
0
LWPOLYLINE
5
101
100
AcDbEntity
8
0
100
AcDbPolyline
90
4
70
1
43
0.0
10
-5053.4999999999836
20
623.99999999999852
10
-5077.5000000000191
20
623.99999999999818
10
-5077.5000000000164
20
563.99999999999818
10
-5053.4999999999873
20
563.99999999999852
0
LWPOLYLINE
5
102
100
AcDbEntity
8
0
100
AcDbPolyline
90
4
70
1
43
0.0
10
-4693.4999999999836
20
623.99999999999852
10
-4717.5000000000191
20
623.99999999999818
10
-4717.5000000000164
20
563.99999999999818
10
-4693.4999999999873
20
563.99999999999852
0
LWPOLYLINE
5
103
100
AcDbEntity
8
0
100
AcDbPolyline
90
4
70
1
43
0.0
10
-4333.4999999999836
20
623.99999999999852
10
-4357.5000000000191
20
623.99999999999818
10
-4357.5000000000164
20
563.99999999999818
10
-4333.4999999999873
20
563.99999999999852
0
LWPOLYLINE
5
104
100
AcDbEntity
8
0
100
AcDbPolyline
90
4
70
1
43
0.0
10
-3973.4999999999832
20
623.99999999999852
10
-3997.5000000000191
20
623.99999999999818
10
-3997.5000000000159
20
563.99999999999818
10
-3973.4999999999877
20
563.99999999999852
0
LWPOLYLINE
5
105
100
AcDbEntity
8
0
100
AcDbPolyline
90
4
70
1
43
0.0
10
-3613.4999999999832
20
623.99999999999852
10
-3637.5000000000191
20
623.99999999999818
10
-3637.5000000000159
20
563.99999999999818
10
-3613.4999999999877
20
563.99999999999852
0
LWPOLYLINE
5
106
100
AcDbEntity
8
0
100
AcDbPolyline
90
4
70
1
43
0.0
10
-3253.4999999999832
20
623.99999999999852
10
-3277.5000000000191
20
623.99999999999818
10
-3277.5000000000159
20
563.99999999999818
10
-3253.4999999999877
20
563.99999999999852
0
LWPOLYLINE
5
107
100
AcDbEntity
8
0
100
AcDbPolyline
90
4
70
1
43
0.0
10
-5413.4999999999836
20
983.99999999999852
10
-5437.5000000000191
20
983.99999999999818
10
-5437.5000000000164
20
923.99999999999818
10
-5413.4999999999873
20
923.99999999999852
0
LWPOLYLINE
5
108
100
AcDbEntity
8
0
100
AcDbPolyline
90
4
70
1
43
0.0
10
-5053.4999999999836
20
983.99999999999852
10
-5077.5000000000191
20
983.99999999999818
10
-5077.5000000000164
20
923.99999999999818
10
-5053.4999999999873
20
923.99999999999852
0
LWPOLYLINE
5
109
100
AcDbEntity
8
0
100
AcDbPolyline
90
4
70
1
43
0.0
10
-4693.4999999999836
20
983.99999999999852
10
-4717.5000000000191
20
983.99999999999818
10
-4717.5000000000164
20
923.99999999999818
10
-4693.4999999999873
20
923.99999999999852
0
LWPOLYLINE
5
110
100
AcDbEntity
8
0
100
AcDbPolyline
90
4
70
1
43
0.0
10
-4333.4999999999836
20
983.99999999999852
10
-4357.5000000000191
20
983.99999999999818
10
-4357.5000000000164
20
923.99999999999818
10
-4333.4999999999873
20
923.99999999999852
0
LWPOLYLINE
5
111
100
AcDbEntity
8
0
100
AcDbPolyline
90
4
70
1
43
0.0
10
-3973.4999999999832
20
983.99999999999852
10
-3997.5000000000191
20
983.99999999999818
10
-3997.5000000000159
20
923.99999999999818
10
-3973.4999999999877
20
923.99999999999852
0
LWPOLYLINE
5
112
100
AcDbEntity
8
0
100
AcDbPolyline
90
4
70
1
43
0.0
10
-3613.4999999999832
20
983.99999999999852
10
-3637.5000000000191
20
983.99999999999818
10
-3637.5000000000159
20
923.99999999999818
10
-3613.4999999999877
20
923.99999999999852
0
LWPOLYLINE
5
113
100
AcDbEntity
8
0
100
AcDbPolyline
90
4
70
1
43
0.0
10
-3253.4999999999832
20
983.99999999999852
10
-3277.5000000000191
20
983.99999999999818
10
-3277.5000000000159
20
923.99999999999818
10
-3253.4999999999877
20
923.99999999999852
0
LWPOLYLINE
5
114
100
AcDbEntity
8
0
100
AcDbPolyline
90
4
70
1
43
0.0
10
-5413.4999999999836
20
1343.9999999999986
10
-5437.5000000000191
20
1343.9999999999982
10
-5437.5000000000164
20
1283.9999999999982
10
-5413.4999999999873
20
1283.9999999999986
0
LWPOLYLINE
5
115
100
AcDbEntity
8
0
100
AcDbPolyline
90
4
70
1
43
0.0
10
-5053.4999999999836
20
1343.9999999999986
10
-5077.5000000000191
20
1343.9999999999982
10
-5077.5000000000164
20
1283.9999999999982
10
-5053.4999999999873
20
1283.9999999999986
0
LWPOLYLINE
5
116
100
AcDbEntity
8
0
100
AcDbPolyline
90
4
70
1
43
0.0
10
-4693.4999999999836
20
1343.9999999999986
10
-4717.5000000000191
20
1343.9999999999982
10
-4717.5000000000164
20
1283.9999999999982
10
-4693.4999999999873
20
1283.9999999999986
0
LWPOLYLINE
5
117
100
AcDbEntity
8
0
100
AcDbPolyline
90
4
70
1
43
0.0
10
-4333.4999999999836
20
1343.9999999999986
10
-4357.5000000000191
20
1343.9999999999982
10
-4357.5000000000164
20
1283.9999999999982
10
-4333.4999999999873
20
1283.9999999999986
0
LWPOLYLINE
5
118
100
AcDbEntity
8
0
100
AcDbPolyline
90
4
70
1
43
0.0
10
-3973.4999999999832
20
1343.9999999999986
10
-3997.5000000000191
20
1343.9999999999982
10
-3997.5000000000159
20
1283.9999999999982
10
-3973.4999999999877
20
1283.9999999999986
0
LWPOLYLINE
5
119
100
AcDbEntity
8
0
100
AcDbPolyline
90
4
70
1
43
0.0
10
-3613.4999999999832
20
1343.9999999999986
10
-3637.5000000000191
20
1343.9999999999982
10
-3637.5000000000159
20
1283.9999999999982
10
-3613.4999999999877
20
1283.9999999999986
0
LWPOLYLINE
5
120
100
AcDbEntity
8
0
100
AcDbPolyline
90
4
70
1
43
0.0
10
-3253.4999999999832
20
1343.9999999999986
10
-3277.5000000000191
20
1343.9999999999982
10
-3277.5000000000159
20
1283.9999999999982
10
-3253.4999999999877
20
1283.9999999999986
0
LWPOLYLINE
5
121
100
AcDbEntity
8
0
100
AcDbPolyline
90
4
70
1
43
0.0
10
-2917.5000000000159
20
563.99999999999818
10
-2905.5000000000159
20
563.99999999999886
10
-2905.5000000000191
20
623.99999999999886
10
-2917.5000000000191
20
623.99999999999818
0
LWPOLYLINE
5
122
100
AcDbEntity
8
0
100
AcDbPolyline
90
4
70
1
43
0.0
10
-2917.5000000000159
20
1283.9999999999982
10
-2905.5000000000159
20
1283.9999999999989
10
-2905.5000000000191
20
1343.9999999999989
10
-2917.5000000000191
20
1343.9999999999982
0
LWPOLYLINE
5
123
100
AcDbEntity
8
0
100
AcDbPolyline
90
4
70
1
43
0.0
10
-5725.5000000000036
20
696.00000000000034
10
-5725.4999999999791
20
671.99999999999989
10
-5665.4999999999791
20
672.00000000000068
10
-5665.5000000000036
20
696.00000000000034
0
LWPOLYLINE
5
124
100
AcDbEntity
8
0
100
AcDbPolyline
90
4
70
1
43
0.0
10
-5365.5000000000036
20
696.00000000000034
10
-5365.4999999999791
20
671.99999999999989
10
-5305.4999999999791
20
672.00000000000068
10
-5305.5000000000036
20
696.00000000000034
0
LWPOLYLINE
5
125
100
AcDbEntity
8
0
100
AcDbPolyline
90
4
70
1
43
0.0
10
-5005.5000000000045
20
696.00000000000034
10
-5005.49999999998
20
671.99999999999989
10
-4945.49999999998
20
672.00000000000068
10
-4945.5000000000045
20
696.00000000000034
0
LWPOLYLINE
5
126
100
AcDbEntity
8
0
100
AcDbPolyline
90
4
70
1
43
0.0
10
-4645.5000000000045
20
696.00000000000034
10
-4645.49999999998
20
671.99999999999989
10
-4585.49999999998
20
672.00000000000068
10
-4585.5000000000045
20
696.00000000000034
0
LWPOLYLINE
5
127
100
AcDbEntity
8
0
100
AcDbPolyline
90
4
70
1
43
0.0
10
-4285.5000000000045
20
696.00000000000034
10
-4285.49999999998
20
671.99999999999989
10
-4225.49999999998
20
672.00000000000068
10
-4225.5000000000045
20
696.00000000000034
0
LWPOLYLINE
5
128
100
AcDbEntity
8
0
100
AcDbPolyline
90
4
70
1
43
0.0
10
-3925.5000000000045
20
696.00000000000034
10
-3925.4999999999795
20
671.99999999999989
10
-3865.4999999999795
20
672.00000000000068
10
-3865.5000000000045
20
696.00000000000034
0
LWPOLYLINE
5
129
100
AcDbEntity
8
0
100
AcDbPolyline
90
4
70
1
43
0.0
10
-3565.5000000000045
20
696.00000000000034
10
-3565.4999999999795
20
671.99999999999989
10
-3505.4999999999795
20
672.00000000000068
10
-3505.5000000000045
20
696.00000000000034
0
LWPOLYLINE
5
130
100
AcDbEntity
8
0
100
AcDbPolyline
90
4
70
1
43
0.0
10
-3205.5000000000045
20
696.00000000000034
10
-3205.4999999999795
20
671.99999999999989
10
-3145.4999999999795
20
672.00000000000068
10
-3145.5000000000045
20
696.00000000000034
0
LWPOLYLINE
5
131
100
AcDbEntity
8
0
100
AcDbPolyline
90
4
70
1
43
0.0
10
-5725.5000000000036
20
1056.0000000000005
10
-5725.4999999999791
20
1032
10
-5665.4999999999791
20
1032.0000000000007
10
-5665.5000000000036
20
1056.0000000000005
0
LWPOLYLINE
5
132
100
AcDbEntity
8
0
100
AcDbPolyline
90
4
70
1
43
0.0
10
-5365.5000000000036
20
1056.0000000000005
10
-5365.4999999999791
20
1032
10
-5305.4999999999791
20
1032.0000000000007
10
-5305.5000000000036
20
1056.0000000000005
0
LWPOLYLINE
5
133
100
AcDbEntity
8
0
100
AcDbPolyline
90
4
70
1
43
0.0
10
-5005.5000000000045
20
1056.0000000000005
10
-5005.49999999998
20
1032
10
-4945.49999999998
20
1032.0000000000007
10
-4945.5000000000045
20
1056.0000000000005
0
LWPOLYLINE
5
134
100
AcDbEntity
8
0
100
AcDbPolyline
90
4
70
1
43
0.0
10
-4645.5000000000045
20
1056.0000000000005
10
-4645.49999999998
20
1032
10
-4585.49999999998
20
1032.0000000000007
10
-4585.5000000000045
20
1056.0000000000005
0
LWPOLYLINE
5
135
100
AcDbEntity
8
0
100
AcDbPolyline
90
4
70
1
43
0.0
10
-4285.5000000000045
20
1056.0000000000005
10
-4285.49999999998
20
1032
10
-4225.49999999998
20
1032.0000000000007
10
-4225.5000000000045
20
1056.0000000000005
0
LWPOLYLINE
5
136
100
AcDbEntity
8
0
100
AcDbPolyline
90
4
70
1
43
0.0
10
-3925.5000000000045
20
1056.0000000000005
10
-3925.4999999999795
20
1032
10
-3865.4999999999795
20
1032.0000000000007
10
-3865.5000000000045
20
1056.0000000000005
0
LWPOLYLINE
5
137
100
AcDbEntity
8
0
100
AcDbPolyline
90
4
70
1
43
0.0
10
-3565.5000000000045
20
1056.0000000000005
10
-3565.4999999999795
20
1032
10
-3505.4999999999795
20
1032.0000000000007
10
-3505.5000000000045
20
1056.0000000000005
0
LWPOLYLINE
5
138
100
AcDbEntity
8
0
100
AcDbPolyline
90
4
70
1
43
0.0
10
-5665.4999999999791
20
1392.0000000000007
10
-5665.49999999998
20
1404.0000000000007
10
-5725.49999999998
20
1403.9999999999998
10
-5725.4999999999791
20
1392
0
LWPOLYLINE
5
139
100
AcDbEntity
8
0
100
AcDbPolyline
90
4
70
1
43
0.0
10
-4945.49999999998
20
1392.0000000000007
10
-4945.49999999998
20
1404.0000000000007
10
-5005.49999999998
20
1403.9999999999998
10
-5005.49999999998
20
1392
0
LWPOLYLINE
5
140
100
AcDbEntity
8
0
100
AcDbPolyline
90
4
70
1
43
0.0
10
-4225.49999999998
20
1392.0000000000007
10
-4225.49999999998
20
1404.0000000000007
10
-4285.49999999998
20
1403.9999999999998
10
-4285.49999999998
20
1392
0
LWPOLYLINE
5
141
100
AcDbEntity
8
0
100
AcDbPolyline
90
4
70
1
43
0.0
10
-3505.4999999999795
20
1392.0000000000007
10
-3505.49999999998
20
1404.0000000000007
10
-3565.49999999998
20
1403.9999999999998
10
-3565.4999999999795
20
1392
0
LWPOLYLINE
5
142
100
AcDbEntity
8
0
100
AcDbPolyline
90
4
70
1
43
0.0
10
-3145.4999999999795
20
1032.0000000000007
10
-3145.5000000000045
20
1056.0000000000005
10
-3205.5000000000045
20
1056.0000000000005
10
-3205.4999999999795
20
1032
0
LWPOLYLINE
5
143
100
AcDbEntity
8
0
100
AcDbPolyline
90
4
70
1
43
0.0
10
-5665.5000000000036
20
336.00000000000034
10
-5725.5000000000036
20
336.00000000000034
10
-5725.5000000000036
20
324.00000000000034
10
-5665.5000000000036
20
324.00000000000034
0
LWPOLYLINE
5
144
100
AcDbEntity
8
0
100
AcDbPolyline
90
4
70
1
43
0.0
10
-5305.5000000000036
20
336.00000000000034
10
-5365.5000000000036
20
336.00000000000034
10
-5365.5000000000036
20
324.00000000000034
10
-5305.5000000000036
20
324.00000000000034
0
LWPOLYLINE
5
145
100
AcDbEntity
8
0
100
AcDbPolyline
90
4
70
1
43
0.0
10
-4945.5000000000045
20
336.00000000000034
10
-5005.5000000000045
20
336.00000000000034
10
-5005.5000000000045
20
324.00000000000034
10
-4945.5000000000045
20
324.00000000000034
0
LWPOLYLINE
5
146
100
AcDbEntity
8
0
100
AcDbPolyline
90
4
70
1
43
0.0
10
-4585.5000000000045
20
336.00000000000034
10
-4645.5000000000045
20
336.00000000000034
10
-4645.5000000000045
20
324.00000000000034
10
-4585.5000000000045
20
324.00000000000034
0
LWPOLYLINE
5
147
100
AcDbEntity
8
0
100
AcDbPolyline
90
4
70
1
43
0.0
10
-4225.5000000000045
20
336.00000000000034
10
-4285.5000000000045
20
336.00000000000034
10
-4285.5000000000045
20
324.00000000000034
10
-4225.5000000000045
20
324.00000000000034
0
LWPOLYLINE
5
148
100
AcDbEntity
8
0
100
AcDbPolyline
90
4
70
1
43
0.0
10
-3865.5000000000045
20
336.00000000000034
10
-3925.5000000000045
20
336.00000000000034
10
-3925.5000000000045
20
324.00000000000034
10
-3865.5000000000045
20
324.00000000000034
0
LWPOLYLINE
5
149
100
AcDbEntity
8
0
100
AcDbPolyline
90
4
70
1
43
0.0
10
-3505.5000000000045
20
336.00000000000034
10
-3565.5000000000045
20
336.00000000000034
10
-3565.5000000000045
20
324.00000000000034
10
-3505.5000000000045
20
324.00000000000034
0
LWPOLYLINE
5
150
100
AcDbEntity
8
0
100
AcDbPolyline
90
4
70
1
43
0.0
10
-3145.5000000000045
20
336.00000000000034
10
-3205.5000000000045
20
336.00000000000034
10
-3205.5000000000045
20
324.00000000000034
10
-3145.5000000000045
20
324.00000000000034
0
LWPOLYLINE
5
151
100
AcDbEntity
8
0
100
AcDbPolyline
90
4
70
1
43
0.0
10
-5773.4999999999873
20
563.99999999999852
10
-5773.4999999999836
20
623.99999999999852
10
-5785.4999999999836
20
623.99999999999932
10
-5785.4999999999882
20
563.99999999999932
0
LWPOLYLINE
5
152
100
AcDbEntity
8
0
100
AcDbPolyline
90
4
70
1
43
0.0
10
-5773.4999999999873
20
923.99999999999852
10
-5773.4999999999836
20
983.99999999999852
10
-5785.4999999999836
20
983.99999999999932
10
-5785.4999999999882
20
923.99999999999932
0
LWPOLYLINE
5
153
100
AcDbEntity
8
0
100
AcDbPolyline
90
4
70
1
43
0.0
10
-5773.4999999999873
20
1283.9999999999986
10
-5773.4999999999836
20
1343.9999999999986
10
-5785.4999999999836
20
1343.9999999999991
10
-5785.4999999999882
20
1283.9999999999991
0
LWPOLYLINE
5
154
100
AcDbEntity
8
0
100
AcDbPolyline
90
4
70
1
43
0.0
10
-5545.5000000000036
20
696.00000000000034
10
-5545.4999999999791
20
672.00000000000227
10
-5485.4999999999791
20
672.00000000000318
10
-5485.5000000000036
20
696.00000000000023
0
LWPOLYLINE
5
155
100
AcDbEntity
8
0
100
AcDbPolyline
90
4
70
1
43
0.0
10
-5185.5000000000036
20
696.00000000000034
10
-5185.4999999999791
20
672.00000000000227
10
-5125.4999999999791
20
672.00000000000318
10
-5125.5000000000036
20
696.00000000000023
0
LWPOLYLINE
5
156
100
AcDbEntity
8
0
100
AcDbPolyline
90
4
70
1
43
0.0
10
-4825.5000000000036
20
696.00000000000034
10
-4825.4999999999791
20
672.00000000000227
10
-4765.4999999999791
20
672.00000000000318
10
-4765.5000000000036
20
696.00000000000023
0
LWPOLYLINE
5
157
100
AcDbEntity
8
0
100
AcDbPolyline
90
4
70
1
43
0.0
10
-4465.5000000000036
20
696.00000000000034
10
-4465.4999999999791
20
672.00000000000227
10
-4405.4999999999791
20
672.00000000000318
10
-4405.5000000000036
20
696.00000000000023
0
LWPOLYLINE
5
158
100
AcDbEntity
8
0
100
AcDbPolyline
90
4
70
1
43
0.0
10
-4105.5000000000036
20
696.00000000000034
10
-4105.4999999999791
20
672.00000000000227
10
-4045.4999999999791
20
672.00000000000318
10
-4045.5000000000036
20
696.00000000000023
0
LWPOLYLINE
5
159
100
AcDbEntity
8
0
100
AcDbPolyline
90
4
70
1
43
0.0
10
-3745.5000000000036
20
696.00000000000034
10
-3745.4999999999791
20
672.00000000000227
10
-3685.4999999999791
20
672.00000000000318
10
-3685.5000000000036
20
696.00000000000023
0
LWPOLYLINE
5
160
100
AcDbEntity
8
0
100
AcDbPolyline
90
4
70
1
43
0.0
10
-3385.5000000000036
20
696.00000000000034
10
-3385.4999999999791
20
672.00000000000227
10
-3325.4999999999791
20
672.00000000000318
10
-3325.5000000000036
20
696.00000000000023
0
LWPOLYLINE
5
161
100
AcDbEntity
8
0
100
AcDbPolyline
90
4
70
1
43
0.0
10
-3025.5000000000036
20
696.00000000000034
10
-3025.4999999999791
20
672.00000000000227
10
-2965.4999999999791
20
672.00000000000318
10
-2965.5000000000036
20
696.00000000000023
0
LWPOLYLINE
5
162
100
AcDbEntity
8
0
100
AcDbPolyline
90
4
70
1
43
0.0
10
-5545.5000000000036
20
1056.0000000000005
10
-5545.4999999999791
20
1032.0000000000023
10
-5485.4999999999791
20
1032.0000000000032
10
-5485.5000000000036
20
1056.0000000000002
0
LWPOLYLINE
5
163
100
AcDbEntity
8
0
100
AcDbPolyline
90
4
70
1
43
0.0
10
-5185.5000000000036
20
1056.0000000000005
10
-5185.4999999999791
20
1032.0000000000023
10
-5125.4999999999791
20
1032.0000000000032
10
-5125.5000000000036
20
1056.0000000000002
0
LWPOLYLINE
5
164
100
AcDbEntity
8
0
100
AcDbPolyline
90
4
70
1
43
0.0
10
-4825.5000000000036
20
1056.0000000000005
10
-4825.4999999999791
20
1032.0000000000023
10
-4765.4999999999791
20
1032.0000000000032
10
-4765.5000000000036
20
1056.0000000000002
0
LWPOLYLINE
5
165
100
AcDbEntity
8
0
100
AcDbPolyline
90
4
70
1
43
0.0
10
-4465.5000000000036
20
1056.0000000000005
10
-4465.4999999999791
20
1032.0000000000023
10
-4405.4999999999791
20
1032.0000000000032
10
-4405.5000000000036
20
1056.0000000000002
0
LWPOLYLINE
5
166
100
AcDbEntity
8
0
100
AcDbPolyline
90
4
70
1
43
0.0
10
-4105.5000000000036
20
1056.0000000000005
10
-4105.4999999999791
20
1032.0000000000023
10
-4045.4999999999791
20
1032.0000000000032
10
-4045.5000000000036
20
1056.0000000000002
0
LWPOLYLINE
5
167
100
AcDbEntity
8
0
100
AcDbPolyline
90
4
70
1
43
0.0
10
-3745.5000000000036
20
1056.0000000000005
10
-3745.4999999999791
20
1032.0000000000023
10
-3685.4999999999791
20
1032.0000000000032
10
-3685.5000000000036
20
1056.0000000000002
0
LWPOLYLINE
5
168
100
AcDbEntity
8
0
100
AcDbPolyline
90
4
70
1
43
0.0
10
-3385.5000000000036
20
1056.0000000000005
10
-3385.4999999999791
20
1032.0000000000023
10
-3325.4999999999791
20
1032.0000000000032
10
-3325.5000000000036
20
1056.0000000000002
0
LWPOLYLINE
5
169
100
AcDbEntity
8
0
100
AcDbPolyline
90
4
70
1
43
0.0
10
-5545.4999999999791
20
1392.0000000000023
10
-5485.4999999999791
20
1392.0000000000032
10
-5485.4999999999791
20
1404.0000000000032
10
-5545.4999999999791
20
1404.0000000000023
0
LWPOLYLINE
5
170
100
AcDbEntity
8
0
100
AcDbPolyline
90
4
70
1
43
0.0
10
-4825.4999999999791
20
1392.0000000000023
10
-4765.4999999999791
20
1392.0000000000032
10
-4765.4999999999791
20
1404.0000000000032
10
-4825.4999999999791
20
1404.0000000000023
0
LWPOLYLINE
5
171
100
AcDbEntity
8
0
100
AcDbPolyline
90
4
70
1
43
0.0
10
-4105.4999999999791
20
1392.0000000000023
10
-4045.4999999999791
20
1392.0000000000032
10
-4045.4999999999791
20
1404.0000000000032
10
-4105.4999999999791
20
1404.0000000000023
0
LWPOLYLINE
5
172
100
AcDbEntity
8
0
100
AcDbPolyline
90
4
70
1
43
0.0
10
-3385.4999999999791
20
1392.0000000000023
10
-3325.4999999999791
20
1392.0000000000032
10
-3325.4999999999791
20
1404.0000000000032
10
-3385.4999999999791
20
1404.0000000000023
0
LWPOLYLINE
5
173
100
AcDbEntity
8
0
100
AcDbPolyline
90
4
70
1
43
0.0
10
-5413.4999999999955
20
443.99999999999761
10
-5437.5000000000091
20
443.9999999999975
10
-5437.5000000000073
20
383.9999999999975
10
-5413.5
20
383.99999999999761
0
LWPOLYLINE
5
174
100
AcDbEntity
8
0
100
AcDbPolyline
90
4
70
1
43
0.0
10
-5053.4999999999955
20
443.99999999999761
10
-5077.50000000001
20
443.9999999999975
10
-5077.5000000000073
20
383.9999999999975
10
-5053.5
20
383.99999999999761
0
LWPOLYLINE
5
175
100
AcDbEntity
8
0
100
AcDbPolyline
90
4
70
1
43
0.0
10
-4693.4999999999955
20
443.99999999999761
10
-4717.50000000001
20
443.9999999999975
10
-4717.5000000000073
20
383.9999999999975
10
-4693.5
20
383.99999999999761
0
LWPOLYLINE
5
176
100
AcDbEntity
8
0
100
AcDbPolyline
90
4
70
1
43
0.0
10
-4333.4999999999955
20
443.99999999999761
10
-4357.50000000001
20
443.9999999999975
10
-4357.5000000000073
20
383.9999999999975
10
-4333.5
20
383.99999999999761
0
LWPOLYLINE
5
177
100
AcDbEntity
8
0
100
AcDbPolyline
90
4
70
1
43
0.0
10
-3973.4999999999955
20
443.99999999999761
10
-3997.5000000000095
20
443.9999999999975
10
-3997.5000000000068
20
383.9999999999975
10
-3973.5
20
383.99999999999761
0
LWPOLYLINE
5
178
100
AcDbEntity
8
0
100
AcDbPolyline
90
4
70
1
43
0.0
10
-3613.4999999999955
20
443.99999999999761
10
-3637.5000000000095
20
443.9999999999975
10
-3637.5000000000068
20
383.9999999999975
10
-3613.5
20
383.99999999999761
0
LWPOLYLINE
5
179
100
AcDbEntity
8
0
100
AcDbPolyline
90
4
70
1
43
0.0
10
-3253.4999999999955
20
443.99999999999761
10
-3277.5000000000095
20
443.9999999999975
10
-3277.5000000000068
20
383.9999999999975
10
-3253.5
20
383.99999999999761
0
LWPOLYLINE
5
180
100
AcDbEntity
8
0
100
AcDbPolyline
90
4
70
1
43
0.0
10
-5413.4999999999955
20
803.99999999999761
10
-5437.5000000000091
20
803.9999999999975
10
-5437.5000000000073
20
743.9999999999975
10
-5413.5
20
743.99999999999761
0
LWPOLYLINE
5
181
100
AcDbEntity
8
0
100
AcDbPolyline
90
4
70
1
43
0.0
10
-5053.4999999999955
20
803.99999999999761
10
-5077.50000000001
20
803.9999999999975
10
-5077.5000000000073
20
743.9999999999975
10
-5053.5
20
743.99999999999761
0
LWPOLYLINE
5
182
100
AcDbEntity
8
0
100
AcDbPolyline
90
4
70
1
43
0.0
10
-4693.4999999999955
20
803.99999999999761
10
-4717.50000000001
20
803.9999999999975
10
-4717.5000000000073
20
743.9999999999975
10
-4693.5
20
743.99999999999761
0
LWPOLYLINE
5
183
100
AcDbEntity
8
0
100
AcDbPolyline
90
4
70
1
43
0.0
10
-4333.4999999999955
20
803.99999999999761
10
-4357.50000000001
20
803.9999999999975
10
-4357.5000000000073
20
743.9999999999975
10
-4333.5
20
743.99999999999761
0
LWPOLYLINE
5
184
100
AcDbEntity
8
0
100
AcDbPolyline
90
4
70
1
43
0.0
10
-3973.4999999999955
20
803.99999999999761
10
-3997.5000000000095
20
803.9999999999975
10
-3997.5000000000068
20
743.9999999999975
10
-3973.5
20
743.99999999999761
0
LWPOLYLINE
5
185
100
AcDbEntity
8
0
100
AcDbPolyline
90
4
70
1
43
0.0
10
-3613.4999999999955
20
803.99999999999761
10
-3637.5000000000095
20
803.9999999999975
10
-3637.5000000000068
20
743.9999999999975
10
-3613.5
20
743.99999999999761
0
LWPOLYLINE
5
186
100
AcDbEntity
8
0
100
AcDbPolyline
90
4
70
1
43
0.0
10
-3253.4999999999955
20
803.99999999999761
10
-3277.5000000000095
20
803.9999999999975
10
-3277.5000000000068
20
743.9999999999975
10
-3253.5
20
743.99999999999761
0
LWPOLYLINE
5
187
100
AcDbEntity
8
0
100
AcDbPolyline
90
4
70
1
43
0.0
10
-5413.4999999999955
20
1163.9999999999977
10
-5437.5000000000091
20
1163.9999999999975
10
-5437.5000000000073
20
1103.9999999999975
10
-5413.5
20
1103.9999999999977
0
LWPOLYLINE
5
188
100
AcDbEntity
8
0
100
AcDbPolyline
90
4
70
1
43
0.0
10
-5053.4999999999955
20
1163.9999999999977
10
-5077.50000000001
20
1163.9999999999975
10
-5077.5000000000073
20
1103.9999999999975
10
-5053.5
20
1103.9999999999977
0
LWPOLYLINE
5
189
100
AcDbEntity
8
0
100
AcDbPolyline
90
4
70
1
43
0.0
10
-4693.4999999999955
20
1163.9999999999977
10
-4717.50000000001
20
1163.9999999999975
10
-4717.5000000000073
20
1103.9999999999975
10
-4693.5
20
1103.9999999999977
0
LWPOLYLINE
5
190
100
AcDbEntity
8
0
100
AcDbPolyline
90
4
70
1
43
0.0
10
-4333.4999999999955
20
1163.9999999999977
10
-4357.50000000001
20
1163.9999999999975
10
-4357.5000000000073
20
1103.9999999999975
10
-4333.5
20
1103.9999999999977
0
LWPOLYLINE
5
191
100
AcDbEntity
8
0
100
AcDbPolyline
90
4
70
1
43
0.0
10
-3973.4999999999955
20
1163.9999999999977
10
-3997.5000000000095
20
1163.9999999999975
10
-3997.5000000000068
20
1103.9999999999975
10
-3973.5
20
1103.9999999999977
0
LWPOLYLINE
5
192
100
AcDbEntity
8
0
100
AcDbPolyline
90
4
70
1
43
0.0
10
-3613.4999999999955
20
1163.9999999999977
10
-3637.5000000000095
20
1163.9999999999975
10
-3637.5000000000068
20
1103.9999999999975
10
-3613.5
20
1103.9999999999977
0
LWPOLYLINE
5
193
100
AcDbEntity
8
0
100
AcDbPolyline
90
4
70
1
43
0.0
10
-3253.4999999999955
20
1163.9999999999977
10
-3277.5000000000095
20
1163.9999999999975
10
-3277.5000000000068
20
1103.9999999999975
10
-3253.5
20
1103.9999999999977
0
LWPOLYLINE
5
194
100
AcDbEntity
8
0
100
AcDbPolyline
90
4
70
1
43
0.0
10
-2917.5000000000095
20
443.9999999999975
10
-2917.5000000000068
20
383.9999999999975
10
-2905.5000000000064
20
383.99999999999807
10
-2905.50000000001
20
443.99999999999807
0
LWPOLYLINE
5
195
100
AcDbEntity
8
0
100
AcDbPolyline
90
4
70
1
43
0.0
10
-2917.5000000000095
20
1163.9999999999975
10
-2917.5000000000068
20
1103.9999999999975
10
-2905.5000000000064
20
1103.9999999999982
10
-2905.50000000001
20
1163.9999999999982
0
LWPOLYLINE
5
196
100
AcDbEntity
8
0
100
AcDbPolyline
90
4
70
1
43
0.0
10
-2965.4999999999791
20
1032.0000000000032
10
-2965.5000000000036
20
1056.0000000000002
10
-3025.5000000000036
20
1056.0000000000005
10
-3025.4999999999791
20
1032.0000000000023
0
LWPOLYLINE
5
197
100
AcDbEntity
8
0
100
AcDbPolyline
90
4
70
1
43
0.0
10
-5545.5000000000036
20
336.00000000000034
10
-5545.5000000000036
20
324.00000000000034
10
-5485.5000000000036
20
324.00000000000034
10
-5485.5000000000036
20
336.00000000000023
0
LWPOLYLINE
5
198
100
AcDbEntity
8
0
100
AcDbPolyline
90
4
70
1
43
0.0
10
-5185.5000000000036
20
336.00000000000034
10
-5185.5000000000036
20
324.00000000000034
10
-5125.5000000000036
20
324.00000000000034
10
-5125.5000000000036
20
336.00000000000023
0
LWPOLYLINE
5
199
100
AcDbEntity
8
0
100
AcDbPolyline
90
4
70
1
43
0.0
10
-4825.5000000000036
20
336.00000000000034
10
-4825.5000000000036
20
324.00000000000034
10
-4765.5000000000036
20
324.00000000000034
10
-4765.5000000000036
20
336.00000000000023
0
LWPOLYLINE
5
200
100
AcDbEntity
8
0
100
AcDbPolyline
90
4
70
1
43
0.0
10
-4465.5000000000036
20
336.00000000000034
10
-4465.5000000000036
20
324.00000000000034
10
-4405.5000000000036
20
324.00000000000034
10
-4405.5000000000036
20
336.00000000000023
0
LWPOLYLINE
5
201
100
AcDbEntity
8
0
100
AcDbPolyline
90
4
70
1
43
0.0
10
-4105.5000000000036
20
336.00000000000034
10
-4105.5000000000036
20
324.00000000000034
10
-4045.5000000000036
20
324.00000000000034
10
-4045.5000000000036
20
336.00000000000023
0
LWPOLYLINE
5
202
100
AcDbEntity
8
0
100
AcDbPolyline
90
4
70
1
43
0.0
10
-3745.5000000000036
20
336.00000000000034
10
-3745.5000000000036
20
324.00000000000034
10
-3685.5000000000036
20
324.00000000000034
10
-3685.5000000000036
20
336.00000000000023
0
LWPOLYLINE
5
203
100
AcDbEntity
8
0
100
AcDbPolyline
90
4
70
1
43
0.0
10
-3385.5000000000036
20
336.00000000000034
10
-3385.5000000000036
20
324.00000000000034
10
-3325.5000000000036
20
324.00000000000034
10
-3325.5000000000036
20
336.00000000000023
0
LWPOLYLINE
5
204
100
AcDbEntity
8
0
100
AcDbPolyline
90
4
70
1
43
0.0
10
-3025.5000000000036
20
336.00000000000034
10
-3025.5000000000036
20
324.00000000000034
10
-2965.5000000000036
20
324.00000000000034
10
-2965.5000000000036
20
336.00000000000023
0
LWPOLYLINE
5
205
100
AcDbEntity
8
0
100
AcDbPolyline
90
4
70
1
43
0.0
10
-5773.4999999999955
20
443.99999999999761
10
-5785.4999999999964
20
443.99999999999852
10
-5785.5
20
383.99999999999852
10
-5773.5
20
383.99999999999761
0
LWPOLYLINE
5
206
100
AcDbEntity
8
0
100
AcDbPolyline
90
4
70
1
43
0.0
10
-5773.4999999999955
20
803.99999999999761
10
-5785.4999999999964
20
803.99999999999852
10
-5785.5
20
743.99999999999852
10
-5773.5
20
743.99999999999761
0
LWPOLYLINE
5
207
100
AcDbEntity
8
0
100
AcDbPolyline
90
4
70
1
43
0.0
10
-5773.4999999999955
20
1163.9999999999977
10
-5785.4999999999964
20
1163.9999999999984
10
-5785.5
20
1103.9999999999984
10
-5773.5
20
1103.9999999999977
0
LWPOLYLINE
5
208
100
AcDbEntity
8
0
100
AcDbPolyline
90
4
70
1
43
0.0
10
-2905.5000000000191
20
983.99999999999886
10
-2917.5000000000191
20
983.99999999999818
10
-2917.5000000000159
20
923.99999999999818
10
-2905.5000000000159
20
923.99999999999886
0
LWPOLYLINE
5
209
100
AcDbEntity
8
0
100
AcDbPolyline
90
4
70
1
43
0.0
10
-2905.5000000000064
20
743.99999999999807
10
-2905.50000000001
20
803.99999999999807
10
-2917.5000000000095
20
803.9999999999975
10
-2917.5000000000068
20
743.9999999999975
0
LWPOLYLINE
5
210
100
AcDbEntity
8
0
100
AcDbPolyline
90
16
70
1
43
0.0
10
-4972.0000000000027
20
1727.9999999999995
10
-4972.0000000000027
20
1577.9999999999995
10
-4077.0000000000027
20
1577.9999999999995
10
-4077.0000000000027
20
1461.9999999999993
10
-3415.0040210318784
20
1461.9999999999993
10
-3415.0040210318784
20
1558.9999999999998
10
-2897.0000000000018
20
1558.9999999999998
10
-2897.0000000000018
20
168.9999999999992
10
-3415.0040210318784
20
168.9999999999992
10
-3415.0040210318784
20
265.99999999999909
10
-4077.0000000000027
20
265.99999999999909
10
-4077.0000000000027
20
149.99999999999943
10
-4972.0000000000027
20
149.99999999999943
10
-4972.0000000000027
20
8.437694987151267e-15
10
-5794.0000000000036
20
0
10
-5794.0000000000036
20
1727.9999999999995
0
LWPOLYLINE
5
211
100
AcDbEntity
8
0
100
AcDbPolyline
90
4
70
1
43
0.0
10
-3745.4999999999791
20
1392.0000000000023
10
-3685.4999999999791
20
1392.0000000000032
10
-3685.4999999999791
20
1404.0000000000032
10
-3745.4999999999791
20
1404.0000000000023
0
LWPOLYLINE
5
212
100
AcDbEntity
8
0
100
AcDbPolyline
90
4
70
1
43
0.0
10
-4465.4999999999791
20
1392.0000000000023
10
-4405.4999999999791
20
1392.0000000000032
10
-4405.4999999999791
20
1404.0000000000032
10
-4465.4999999999791
20
1404.0000000000023
0
LWPOLYLINE
5
213
100
AcDbEntity
8
0
100
AcDbPolyline
90
4
70
1
43
0.0
10
-5185.4999999999791
20
1392.0000000000023
10
-5125.4999999999791
20
1392.0000000000032
10
-5125.4999999999791
20
1404.0000000000032
10
-5185.4999999999791
20
1404.0000000000023
0
LWPOLYLINE
5
214
100
AcDbEntity
8
0
100
AcDbPolyline
90
4
70
1
43
0.0
10
-3025.4999999999791
20
1392.0000000000023
10
-2965.4999999999791
20
1392.0000000000032
10
-2965.4999999999791
20
1404.0000000000032
10
-3025.4999999999791
20
1404.0000000000023
0
LWPOLYLINE
5
215
100
AcDbEntity
8
0
100
AcDbPolyline
90
4
70
1
43
0.0
10
-3865.4999999999795
20
1392.0000000000007
10
-3865.49999999998
20
1404.0000000000007
10
-3925.49999999998
20
1403.9999999999998
10
-3925.4999999999795
20
1392
0
LWPOLYLINE
5
216
100
AcDbEntity
8
0
100
AcDbPolyline
90
4
70
1
43
0.0
10
-4585.49999999998
20
1392.0000000000007
10
-4585.49999999998
20
1404.0000000000007
10
-4645.49999999998
20
1403.9999999999998
10
-4645.49999999998
20
1392
0
LWPOLYLINE
5
217
100
AcDbEntity
8
0
100
AcDbPolyline
90
4
70
1
43
0.0
10
-5305.4999999999791
20
1392.0000000000007
10
-5305.49999999998
20
1404.0000000000007
10
-5365.49999999998
20
1403.9999999999998
10
-5365.4999999999791
20
1392
0
LWPOLYLINE
5
218
100
AcDbEntity
8
0
100
AcDbPolyline
90
4
70
1
43
0.0
10
-3145.4999999999795
20
1392.0000000000007
10
-3145.49999999998
20
1404.0000000000007
10
-3205.49999999998
20
1403.9999999999998
10
-3205.4999999999795
20
1392
0
ENDSEC
0
SECTION
2
OBJECTS
0
DICTIONARY
5
C
100
AcDbDictionary
3
ACAD_GROUP
350
D
3
ACAD_MLINESTYLE
350
17
0
DICTIONARY
5
D
100
AcDbDictionary
0
DICTIONARY
5
1A
330
C
100
AcDbDictionary
0
DICTIONARY
5
17
100
AcDbDictionary
0
ENDSEC
0
EOF
